<svg class="shape-root" viewBox="0 0 275 49" preserveAspectRatio="none" overflow="visible">
  <path class="shape-fill-1" d="M 27.12,16.37 C 27.62,16.37 27.84,16.54 27.77,17.04 L 27.53,18.91 C 27.48,19.41 27.24,19.61 26.73,19.61 L 23.66,19.61 L 22.13,31.97 C 22.06,32.47 21.89,32.69 21.39,32.69 L 18.79,32.69 C 18.29,32.69 18.09,32.47 18.17,31.97 L 19.71,19.61 L 16.64,19.61 C 16.14,19.61 15.91,19.41 15.99,18.91 L 16.23,17.04 C 16.27,16.54 16.52,16.37 17.02,16.37 M 33.05,19.6 L 32.57,23.42 L 34.48,23.42 C 35.73,23.42 36.69,23.06 36.86,21.96 L 36.93,21.46 C 36.96,21.26 36.96,21.12 36.96,21.05 C 36.96,20.11 36.31,19.61 35.04,19.61 L 33.04,19.61 L 33.05,19.6 Z M 37.77,26.14 L 39.38,31.96 C 39.5,32.42 39.12,32.69 38.64,32.69 L 36.07,32.69 C 35.64,32.69 35.54,32.35 35.44,31.97 L 33.98,26.67 L 32.16,26.67 L 31.51,31.97 C 31.46,32.47 31.27,32.69 30.77,32.69 L 28.17,32.69 C 27.77,32.69 27.47,32.54 27.55,31.97 L 29.37,17.09 C 29.45,16.59 29.67,16.37 30.17,16.37 L 35.13,16.37 C 39.23,16.37 40.94,18.17 40.94,20.23 C 40.94,20.35 40.92,20.62 40.89,20.81 L 40.68,22.68 C 40.4976232013,24.3118028362 39.3548256325,25.6752785563 37.78,26.14 L 37.77,26.14 Z M 48.93,25.25 C 48.69,23.4 48.78,20.28 48.78,20.23 C 48.74,20.4 47.92,23.88 47.37,25.25 L 46.84,26.55 L 49.1,26.55 L 48.93,25.25 Z M 50.58,16.37 C 51.08,16.37 51.3,16.61 51.38,17.09 L 53.9,31.97 C 53.97,32.42 53.8,32.69 53.3,32.69 L 50.68,32.69 C 50.18,32.69 49.98,32.42 49.91,31.97 L 49.58,29.67 L 45.59,29.67 L 44.69,31.97 C 44.51,32.42 44.27,32.69 43.77,32.69 L 41.3,32.69 C 40.82,32.69 40.67,32.42 40.87,31.97 L 47,17.09 C 47.22,16.59 47.48,16.37 47.98,16.37 L 50.58,16.37 L 50.58,16.37 Z M 67.81,31.96 C 67.74,32.46 67.57,32.69 67.07,32.69 L 64.8,32.69 C 64.42,32.69 64.25,32.56 64.15,32.35 L 61.11,25.97 C 60.67,25.06 60.34,23.81 60.34,23.81 L 59.34,31.97 C 59.26,32.47 59.09,32.69 58.59,32.69 L 56.23,32.69 C 55.73,32.69 55.53,32.47 55.61,31.97 L 57.44,17.09 C 57.51,16.59 57.72,16.37 58.23,16.37 L 60.48,16.37 C 60.82,16.37 60.98,16.47 61.08,16.66 L 64.3,23.45 C 64.66,24.24 64.9,25.15 64.92,25.25 L 65.9,17.09 C 65.98,16.59 66.2,16.37 66.7,16.37 L 69.05,16.37 C 69.55,16.37 69.7,16.58 69.62,17.09 M 79.59,20.8 L 79.59,20.66 C 79.59,19.68 78.92,19.3 77.86,19.3 C 76.76,19.3 75.96,19.7 75.82,20.8 L 75.8,21.05 L 75.8,21.19 C 75.8,21.82 76.2,21.99 76.45,22.08 L 80.31,23.45 C 81.87,24 82.88,25.2 82.88,26.69 C 82.88,26.85 82.85,27.02 82.83,27.29 L 82.66,28.77 C 82.42,30.84 80.89,32.87 76.33,32.87 C 72.23,32.87 70.64,31.1 70.64,29.18 C 70.64,29.06 70.64,28.92 70.69,28.58 L 70.86,27.17 C 70.91,26.67 71.14,26.45 71.65,26.45 L 74.15,26.45 C 74.65,26.45 74.79,26.71 74.72,27.17 L 74.6,28.05 C 74.58,28.22 74.58,28.35 74.58,28.49 C 74.58,29.42 75.42,29.76 76.57,29.76 C 77.74,29.76 78.65,29.35 78.82,28.25 L 78.87,27.93 L 78.89,27.65 C 78.89,26.88 77.77,26.45 77.02,26.15 L 73.74,24.86 C 72.6051500878,24.4033029563 71.8612609942,23.3032967436 71.86,22.08 C 71.86,21.94 71.89,21.72 71.91,21.48 L 72.06,20.28 C 72.3,18.22 73.62,16.18 78.1,16.18 C 82.13,16.18 83.55,17.95 83.55,19.8 C 83.55,19.9 83.55,20 83.52,20.28 L 83.42,21.17 C 83.38,21.67 83.14,21.89 82.64,21.89 L 80.14,21.89 C 79.69,21.89 79.52,21.72 79.57,21.17 M 90.05,19.6 L 89.52,23.9 L 91.44,23.9 C 92.69,23.9 93.67,23.6 93.82,22.49 L 93.94,21.5 C 93.96,21.29 93.96,21.14 93.96,21.07 C 93.96,20.14 93.48,19.61 92.04,19.61 L 90.05,19.61 L 90.05,19.6 Z M 89.11,27.14 L 88.51,31.96 C 88.44,32.46 88.27,32.69 87.77,32.69 L 85.18,32.69 C 84.68,32.69 84.51,32.45 84.56,31.97 L 86.38,17.09 C 86.45,16.59 86.67,16.37 87.18,16.37 L 92.21,16.37 C 96.31,16.37 97.92,18.19 97.92,20.23 C 97.92,20.45 97.92,20.54 97.87,20.98 L 97.63,23.18 C 97.37,25.51 95.81,27.14 91.15,27.14 L 89.11,27.14 L 89.11,27.14 Z M 108,21.2 L 108.05,20.74 C 108.05,19.8 107.21,19.42 106,19.42 C 104.95,19.42 103.82,19.87 103.68,20.98 L 102.81,27.86 L 102.77,28.32 C 102.77,29.25 103.63,29.64 104.83,29.64 C 106,29.64 106.99,29.18 107.13,28.08 L 108,21.19 L 108,21.2 Z M 99.8,20.28 C 100.03,18.22 101.66,16.18 106.3,16.18 C 110.37,16.18 112.08,17.95 112.08,19.85 C 112.08,19.99 112.05,20.25 112.03,20.47 L 111.02,28.77 C 110.78,30.84 109.12,32.87 104.49,32.87 C 100.42,32.87 98.73,31.13 98.73,29.21 C 98.73,29.06 98.76,28.82 98.78,28.58 L 99.79,20.28 L 99.8,20.28 Z M 118.77,19.6 L 118.29,23.42 L 120.21,23.42 C 121.46,23.42 122.41,23.06 122.58,21.96 L 122.66,21.46 C 122.68,21.26 122.68,21.12 122.68,21.05 C 122.68,20.11 122.03,19.61 120.76,19.61 L 118.76,19.61 L 118.77,19.6 Z M 123.5,26.14 L 125.1,31.96 C 125.22,32.42 124.84,32.69 124.36,32.69 L 121.79,32.69 C 121.36,32.69 121.26,32.35 121.17,31.97 L 119.7,26.67 L 117.88,26.67 L 117.23,31.97 C 117.19,32.47 116.99,32.69 116.49,32.69 L 113.89,32.69 C 113.49,32.69 113.2,32.54 113.27,31.97 L 115.1,17.09 C 115.17,16.59 115.39,16.37 115.89,16.37 L 120.86,16.37 C 124.96,16.37 126.66,18.17 126.66,20.23 C 126.66,20.35 126.64,20.62 126.61,20.81 L 126.4,22.68 C 126.2176232013,24.3118028362 125.0748256325,25.6752785563 123.5,26.14 L 123.5,26.14 Z M 139.14,16.37 C 139.64,16.37 139.86,16.54 139.79,17.04 L 139.55,18.91 C 139.5,19.41 139.25,19.61 138.75,19.61 L 135.68,19.61 L 134.15,31.97 C 134.08,32.47 133.91,32.69 133.4,32.69 L 130.81,32.69 C 130.31,32.69 130.11,32.47 130.19,31.97 L 131.72,19.61 L 128.65,19.61 C 128.15,19.61 127.93,19.41 128.01,18.91 L 128.25,17.04 C 128.29,16.54 128.53,16.37 129.04,16.37 M 150.94,16.37 C 151.44,16.37 151.66,16.54 151.59,17.04 L 151.35,18.91 C 151.28,19.41 151.06,19.61 150.55,19.61 L 145.06,19.61 L 144.68,22.73 L 149.79,22.73 C 150.29,22.73 150.49,22.9 150.42,23.4 L 150.18,25.27 C 150.1,25.77 149.86,25.97 149.36,25.97 L 144.27,25.97 L 143.53,31.97 C 143.46,32.47 143.29,32.69 142.78,32.69 L 140.19,32.69 C 139.69,32.69 139.49,32.47 139.57,31.97 L 141.39,17.09 C 141.47,16.59 141.69,16.37 142.19,16.37 M 161.19,21.2 L 161.23,20.74 C 161.23,19.8 160.4,19.42 159.2,19.42 C 158.14,19.42 157.01,19.87 156.87,20.98 L 156,27.86 L 155.96,28.32 C 155.96,29.25 156.82,29.64 158.02,29.64 C 159.19,29.64 160.18,29.18 160.32,28.08 L 161.19,21.19 L 161.19,21.2 Z M 152.99,20.28 C 153.22,18.22 154.85,16.18 159.49,16.18 C 163.56,16.18 165.26,17.95 165.26,19.85 C 165.2558491665,20.05715681 165.242502691,20.2640271808 165.22,20.47 L 164.21,28.77 C 163.97,30.84 162.31,32.87 157.68,32.87 C 153.6,32.87 151.93,31.13 151.93,29.21 L 151.97,28.58 L 152.98,20.28 L 152.99,20.28 Z M 171.96,19.6 L 171.48,23.42 L 173.4,23.42 C 174.65,23.42 175.6,23.06 175.77,21.96 L 175.85,21.46 C 175.87,21.26 175.87,21.12 175.87,21.05 C 175.87,20.11 175.22,19.61 173.95,19.61 L 171.95,19.61 L 171.96,19.6 Z M 176.69,26.14 L 178.29,31.96 C 178.41,32.42 178.03,32.69 177.55,32.69 L 174.98,32.69 C 174.55,32.69 174.45,32.35 174.36,31.97 L 172.89,26.67 L 171.07,26.67 L 170.42,31.97 C 170.38,32.47 170.18,32.69 169.68,32.69 L 167.08,32.69 C 166.68,32.69 166.39,32.54 166.46,31.97 L 168.29,17.09 C 168.36,16.59 168.58,16.37 169.08,16.37 L 174.05,16.37 C 178.15,16.37 179.85,18.17 179.85,20.23 L 179.81,20.81 L 179.59,22.68 C 179.4076232013,24.3118028362 178.2648256325,25.6752785563 176.69,26.14 L 176.69,26.14 Z M 181.58,32.69 C 181.08,32.69 180.88,32.47 180.95,31.97 L 182.78,17.09 C 182.85,16.59 183.07,16.37 183.57,16.37 L 191.77,16.37 C 192.28,16.37 192.5,16.54 192.43,17.04 L 192.18,18.91 C 192.11,19.41 191.9,19.61 191.39,19.61 L 186.45,19.61 L 186.07,22.73 L 190.63,22.73 C 191.13,22.73 191.32,22.9 191.25,23.4 L 191.03,25.15 C 190.96,25.65 190.75,25.85 190.24,25.85 L 185.68,25.85 L 185.23,29.45 L 190.41,29.45 C 190.91,29.45 191.13,29.61 191.06,30.12 L 190.82,31.99 C 190.75,32.49 190.52,32.69 190.02,32.69 M 204.59,16.37 C 205.09,16.37 205.31,16.54 205.24,17.04 L 205,18.91 C 204.95,19.41 204.7,19.61 204.2,19.61 L 201.13,19.61 L 199.6,31.97 C 199.53,32.47 199.36,32.69 198.85,32.69 L 196.26,32.69 C 195.76,32.69 195.56,32.47 195.64,31.97 L 197.17,19.61 L 194.1,19.61 C 193.6,19.61 193.38,19.41 193.46,18.91 L 193.69,17.04 C 193.74,16.54 193.99,16.37 194.49,16.37 M 210.7,25.25 C 210.47,23.4 210.56,20.28 210.56,20.23 C 210.51,20.4 209.7,23.88 209.15,25.25 L 208.62,26.55 L 210.87,26.55 L 210.71,25.25 L 210.7,25.25 Z M 212.36,16.37 C 212.86,16.37 213.08,16.61 213.16,17.09 L 215.67,31.97 C 215.74,32.42 215.57,32.69 215.07,32.69 L 212.46,32.69 C 211.96,32.69 211.76,32.42 211.69,31.97 L 211.35,29.67 L 207.37,29.67 L 206.46,31.97 C 206.29,32.42 206.06,32.69 205.55,32.69 L 203.08,32.69 C 202.6,32.69 202.45,32.42 202.64,31.97 L 208.79,17.09 C 209,16.59 209.27,16.37 209.77,16.37 L 212.37,16.37 L 212.36,16.37 Z M 228.99,23.8 C 229.56,23.8 229.69,24.07 229.64,24.48 L 229.11,28.78 C 228.84,30.84 227.45,32.88 222.82,32.88 C 218.74,32.88 217.28,31.12 217.28,29.23 C 217.28,29.06 217.3,28.8 217.33,28.58 L 218.33,20.28 C 218.57,18.22 219.99,16.18 224.63,16.18 C 228.7,16.18 230.16,17.93 230.16,19.85 L 230.12,20.5 L 230.04,21.14 C 230,21.64 229.78,21.86 229.28,21.86 L 226.81,21.86 C 226.31,21.86 226.13,21.58 226.21,21.14 L 226.23,20.98 C 226.25,20.81 226.25,20.68 226.25,20.59 C 226.25,19.8 225.55,19.42 224.45,19.42 C 223.3,19.42 222.37,19.87 222.22,20.98 L 221.36,27.88 C 221.33,28.05 221.31,28.25 221.31,28.37 C 221.31,29.25 221.98,29.64 223.13,29.64 C 224.43,29.64 225.23,29.18 225.34,28.08 L 225.46,27.05 L 223.49,27.05 C 222.99,27.05 222.79,26.83 222.87,26.35 L 223.11,24.48 C 223.16,23.98 223.4,23.81 223.91,23.81 M 231.87,32.69 C 231.37,32.69 231.17,32.47 231.24,31.97 L 233.07,17.09 C 233.14,16.59 233.35,16.37 233.86,16.37 L 242.06,16.37 C 242.56,16.37 242.78,16.54 242.71,17.04 L 242.47,18.91 C 242.4,19.41 242.18,19.61 241.67,19.61 L 236.74,19.61 L 236.35,22.73 L 240.91,22.73 C 241.41,22.73 241.61,22.9 241.54,23.4 L 241.32,25.15 C 241.25,25.65 241.03,25.85 240.52,25.85 L 235.97,25.85 L 235.51,29.45 L 240.7,29.45 C 241.2,29.45 241.42,29.61 241.34,30.12 L 241.1,31.99 C 241.03,32.49 240.82,32.69 240.31,32.69 M 255.57,31.96 C 255.5,32.46 255.33,32.69 254.83,32.69 L 252.57,32.69 C 252.19,32.69 252.02,32.56 251.92,32.35 L 248.88,25.97 C 248.44,25.06 248.11,23.81 248.11,23.81 L 247.11,31.97 C 247.03,32.47 246.86,32.69 246.36,32.69 L 244,32.69 C 243.5,32.69 243.3,32.47 243.37,31.97 L 245.2,17.09 C 245.27,16.59 245.48,16.37 245.99,16.37 L 248.24,16.37 C 248.58,16.37 248.74,16.47 248.84,16.66 L 252.06,23.45 C 252.42,24.24 252.66,25.15 252.68,25.25 L 253.67,17.09 C 253.74,16.59 253.95,16.37 254.46,16.37 L 256.81,16.37 C 257.31,16.37 257.46,16.58 257.38,17.09 M 163.93,9.8 C 163.03,9.8 162.25,10.37 161.94,11.16 L 157.88,11.16 C 157.5052726458,10.2077868544 156.5063680007,9.6566111114 155.5010013026,9.8473157703 C 154.4956346044,10.0380204293 153.767955601,10.9167060712 153.767955601,11.94 C 153.767955601,12.9632939288 154.4956346044,13.8419795707 155.5010013026,14.0326842297 C 156.5063680007,14.2233888886 157.5052726458,13.6722131456 157.88,12.72 L 161.94,12.72 C 162.3371760892,13.7144398524 163.4108969909,14.2594168339 164.4480425945,13.992980232 C 165.485188198,13.72654363 166.1632951844,12.7315323738 166.03199351,11.6687909488 C 165.9006918357,10.606049524 165.0008050587,9.8059993545 163.93,9.8" fill-rule="evenodd"></path>
    </svg>