<svg xmlns="http://www.w3.org/2000/svg" viewbox="0 0 275 49" width="275" height="49">
  <g fill="none" fill-rule="evenodd">
    <g>
      <path fill="#006589" d="M23.2.06h227.44c9.05 0 23.53 8.62 23.53 24.53 0 15.92-14.9 24.41-23.53 24.41H23.19C13.43 49 0 39.07 0 24.6 0 10.11 12.97.04 23.2.04" mask="url(#b)"/>
    </g>
    <path fill="#FFFFFE" d="M27.12 16.37c.5 0 .72.17.65.67l-.24 1.87c-.05.5-.29.7-.8.7h-3.07l-1.53 12.36c-.07.5-.24.72-.74.72h-2.6c-.5 0-.7-.22-.62-.72l1.54-12.36h-3.07c-.5 0-.73-.2-.65-.7l.24-1.87c.04-.5.29-.67.79-.67M33.05 19.6l-.48 3.82h1.91c1.25 0 2.21-.36 2.38-1.46l.07-.5c.03-.2.03-.34.03-.41 0-.94-.65-1.44-1.92-1.44h-2Zm4.72 6.54 1.61 5.82c.12.46-.26.73-.74.73h-2.57c-.43 0-.53-.34-.63-.72l-1.46-5.3h-1.82l-.65 5.3c-.05.5-.24.72-.74.72h-2.6c-.4 0-.7-.15-.62-.72l1.82-14.88c.08-.5.3-.72.8-.72h4.96c4.1 0 5.81 1.8 5.81 3.86 0 .12-.02.39-.05.58l-.21 1.87a4.08 4.08 0 0 1-2.9 3.46ZM48.93 25.25c-.24-1.85-.15-4.97-.15-5.02-.04.17-.86 3.65-1.41 5.02l-.53 1.3h2.26l-.17-1.3Zm1.65-8.88c.5 0 .72.24.8.72l2.52 14.88c.07.45-.1.72-.6.72h-2.62c-.5 0-.7-.27-.77-.72l-.33-2.3h-3.99l-.9 2.3c-.18.45-.42.72-.92.72H41.3c-.48 0-.63-.27-.43-.72L47 17.09c.22-.5.48-.72.98-.72h2.6ZM67.81 31.96c-.07.5-.24.73-.74.73H64.8c-.38 0-.55-.13-.65-.34l-3.04-6.38c-.44-.91-.77-2.16-.77-2.16l-1 8.16c-.08.5-.25.72-.75.72h-2.36c-.5 0-.7-.22-.62-.72l1.83-14.88c.07-.5.28-.72.79-.72h2.25c.34 0 .5.1.6.29l3.22 6.79c.36.79.6 1.7.62 1.8l.98-8.16c.08-.5.3-.72.8-.72h2.35c.5 0 .65.21.57.72M79.59 20.8v-.14c0-.98-.67-1.36-1.73-1.36-1.1 0-1.9.4-2.04 1.5l-.02.25v.14c0 .63.4.8.65.89l3.86 1.37c1.56.55 2.57 1.75 2.57 3.24 0 .16-.03.33-.05.6l-.17 1.48c-.24 2.07-1.77 4.1-6.33 4.1-4.1 0-5.69-1.77-5.69-3.69 0-.12 0-.26.05-.6l.17-1.41c.05-.5.28-.72.79-.72h2.5c.5 0 .64.26.57.72l-.12.88c-.02.17-.02.3-.02.44 0 .93.84 1.27 1.99 1.27 1.17 0 2.08-.41 2.25-1.51l.05-.32.02-.28c0-.77-1.12-1.2-1.87-1.5l-3.28-1.29a3 3 0 0 1-1.88-2.78c0-.14.03-.36.05-.6l.15-1.2c.24-2.06 1.56-4.1 6.04-4.1 4.03 0 5.45 1.77 5.45 3.62 0 .1 0 .2-.03.48l-.1.89c-.04.5-.28.72-.78.72h-2.5c-.45 0-.62-.17-.57-.72M90.05 19.6l-.53 4.3h1.92c1.25 0 2.23-.3 2.38-1.41l.12-.99c.02-.21.02-.36.02-.43 0-.93-.48-1.46-1.92-1.46h-1.99Zm-.94 7.54-.6 4.82c-.07.5-.24.73-.74.73h-2.59c-.5 0-.67-.24-.62-.72l1.82-14.88c.07-.5.29-.72.8-.72h5.03c4.1 0 5.71 1.82 5.71 3.86 0 .22 0 .31-.05.75l-.24 2.2c-.26 2.33-1.82 3.96-6.48 3.96h-2.04ZM108 21.2l.05-.46c0-.94-.84-1.32-2.05-1.32-1.05 0-2.18.45-2.32 1.56l-.87 6.88-.04.46c0 .93.86 1.32 2.06 1.32 1.17 0 2.16-.46 2.3-1.56l.87-6.89Zm-8.2-.92c.23-2.06 1.86-4.1 6.5-4.1 4.07 0 5.78 1.77 5.78 3.67 0 .14-.03.4-.05.62l-1.01 8.3c-.24 2.07-1.9 4.1-6.53 4.1-4.07 0-5.76-1.74-5.76-3.66 0-.15.03-.39.05-.63l1.01-8.3ZM118.77 19.6l-.48 3.82h1.92c1.25 0 2.2-.36 2.37-1.46l.08-.5c.02-.2.02-.34.02-.41 0-.94-.65-1.44-1.92-1.44h-2Zm4.73 6.54 1.6 5.82c.12.46-.26.73-.74.73h-2.57c-.43 0-.53-.34-.62-.72l-1.47-5.3h-1.82l-.65 5.3c-.04.5-.24.72-.74.72h-2.6c-.4 0-.69-.15-.62-.72l1.83-14.88c.07-.5.29-.72.79-.72h4.97c4.1 0 5.8 1.8 5.8 3.86 0 .12-.02.39-.05.58l-.21 1.87a4.08 4.08 0 0 1-2.9 3.46ZM139.14 16.37c.5 0 .72.17.65.67l-.24 1.87c-.05.5-.3.7-.8.7h-3.07l-1.53 12.36c-.07.5-.24.72-.75.72h-2.59c-.5 0-.7-.22-.62-.72l1.53-12.36h-3.07c-.5 0-.72-.2-.64-.7l.24-1.87c.04-.5.28-.67.79-.67M150.94 16.37c.5 0 .72.17.65.67l-.24 1.87c-.07.5-.29.7-.8.7h-5.49l-.38 3.12h5.11c.5 0 .7.17.63.67l-.24 1.87c-.08.5-.32.7-.82.7h-5.09l-.74 6c-.07.5-.24.72-.75.72h-2.59c-.5 0-.7-.22-.62-.72l1.82-14.88c.08-.5.3-.72.8-.72M161.19 21.2l.04-.46c0-.94-.83-1.32-2.03-1.32-1.06 0-2.19.45-2.33 1.56l-.87 6.88-.04.46c0 .93.86 1.32 2.06 1.32 1.17 0 2.16-.46 2.3-1.56l.87-6.89Zm-8.2-.92c.23-2.06 1.86-4.1 6.5-4.1 4.07 0 5.77 1.77 5.77 3.67a7 7 0 0 1-.04.62l-1.01 8.3c-.24 2.07-1.9 4.1-6.53 4.1-4.08 0-5.75-1.74-5.75-3.66l.04-.63 1.01-8.3ZM171.96 19.6l-.48 3.82h1.92c1.25 0 2.2-.36 2.37-1.46l.08-.5c.02-.2.02-.34.02-.41 0-.94-.65-1.44-1.92-1.44h-2Zm4.73 6.54 1.6 5.82c.12.46-.26.73-.74.73h-2.57c-.43 0-.53-.34-.62-.72l-1.47-5.3h-1.82l-.65 5.3c-.04.5-.24.72-.74.72h-2.6c-.4 0-.69-.15-.62-.72l1.83-14.88c.07-.5.29-.72.79-.72h4.97c4.1 0 5.8 1.8 5.8 3.86l-.04.58-.22 1.87a4.08 4.08 0 0 1-2.9 3.46ZM181.58 32.69c-.5 0-.7-.22-.63-.72l1.83-14.88c.07-.5.29-.72.79-.72h8.2c.51 0 .73.17.66.67l-.25 1.87c-.07.5-.28.7-.79.7h-4.94l-.38 3.12h4.56c.5 0 .69.17.62.67l-.22 1.75c-.07.5-.28.7-.79.7h-4.56l-.45 3.6h5.18c.5 0 .72.16.65.67l-.24 1.87c-.07.5-.3.7-.8.7M204.59 16.37c.5 0 .72.17.65.67l-.24 1.87c-.05.5-.3.7-.8.7h-3.07l-1.53 12.36c-.07.5-.24.72-.75.72h-2.59c-.5 0-.7-.22-.62-.72l1.53-12.36h-3.07c-.5 0-.72-.2-.64-.7l.23-1.87c.05-.5.3-.67.8-.67M210.7 25.25c-.23-1.85-.14-4.97-.14-5.02-.05.17-.86 3.65-1.41 5.02l-.53 1.3h2.25l-.16-1.3Zm1.66-8.88c.5 0 .72.24.8.72l2.51 14.88c.07.45-.1.72-.6.72h-2.61c-.5 0-.7-.27-.77-.72l-.34-2.3h-3.98l-.91 2.3c-.17.45-.4.72-.91.72h-2.47c-.48 0-.63-.27-.44-.72l6.15-14.88c.21-.5.48-.72.98-.72h2.6ZM228.99 23.8c.57 0 .7.27.65.68l-.53 4.3c-.27 2.06-1.66 4.1-6.29 4.1-4.08 0-5.54-1.76-5.54-3.65 0-.17.02-.43.05-.65l1-8.3c.24-2.06 1.66-4.1 6.3-4.1 4.07 0 5.53 1.75 5.53 3.67l-.04.65-.08.64c-.04.5-.26.72-.76.72h-2.47c-.5 0-.68-.28-.6-.72l.02-.16c.02-.17.02-.3.02-.39 0-.79-.7-1.17-1.8-1.17-1.15 0-2.08.45-2.23 1.56l-.86 6.9c-.03.17-.05.37-.05.49 0 .88.67 1.27 1.82 1.27 1.3 0 2.1-.46 2.21-1.56l.12-1.03h-1.97c-.5 0-.7-.22-.62-.7l.24-1.87c.05-.5.29-.67.8-.67M231.87 32.69c-.5 0-.7-.22-.63-.72l1.83-14.88c.07-.5.28-.72.79-.72h8.2c.5 0 .72.17.65.67l-.24 1.87c-.07.5-.29.7-.8.7h-4.93l-.39 3.12h4.56c.5 0 .7.17.63.67l-.22 1.75c-.07.5-.29.7-.8.7h-4.55l-.46 3.6h5.19c.5 0 .72.16.64.67l-.24 1.87c-.07.5-.28.7-.79.7M255.57 31.96c-.07.5-.24.73-.74.73h-2.26c-.38 0-.55-.13-.65-.34l-3.04-6.38c-.44-.91-.77-2.16-.77-2.16l-1 8.16c-.08.5-.25.72-.75.72H244c-.5 0-.7-.22-.63-.72l1.83-14.88c.07-.5.28-.72.79-.72h2.25c.34 0 .5.1.6.29l3.22 6.79c.36.79.6 1.7.62 1.8l.99-8.16c.07-.5.28-.72.79-.72h2.35c.5 0 .65.21.57.72M163.93 9.8c-.9 0-1.68.57-1.99 1.36h-4.06a2.13 2.13 0 1 0 0 1.56h4.06a2.13 2.13 0 1 0 1.99-2.92"/>
  </g>
</svg>